<?xml version="1.0" encoding="UTF-8"?>
<svg width="800" height="500" viewBox="0 0 800 500" fill="none" xmlns="http://www.w3.org/2000/svg">
  <!-- Dark background for the dashboard -->
  <rect width="800" height="500" rx="10" fill="#1e2a3b"/>
  
  <!-- Header -->
  <rect x="20" y="20" width="760" height="60" rx="5" fill="#2c3e50"/>
  <circle cx="50" cy="50" r="15" fill="#3498db"/>
  <rect x="80" y="40" width="120" height="20" rx="5" fill="#34495e"/>
  <rect x="650" y="40" width="100" height="20" rx="5" fill="#34495e"/>
  
  <!-- Left sidebar -->
  <rect x="20" y="100" width="180" height="380" rx="5" fill="#2c3e50"/>
  <rect x="40" y="130" width="140" height="30" rx="5" fill="#3498db"/>
  <rect x="40" y="180" width="140" height="30" rx="5" fill="#34495e"/>
  <rect x="40" y="230" width="140" height="30" rx="5" fill="#34495e"/>
  <rect x="40" y="280" width="140" height="30" rx="5" fill="#34495e"/>
  <rect x="40" y="330" width="140" height="30" rx="5" fill="#34495e"/>
  
  <!-- Main content area - Top stats -->
  <rect x="220" y="100" width="170" height="100" rx="5" fill="#3498db"/>
  <rect x="240" y="120" width="100" height="15" rx="2" fill="#ffffff" fill-opacity="0.2"/>
  <rect x="240" y="145" width="80" height="30" rx="2" fill="#ffffff" fill-opacity="0.1"/>
  <text x="250" y="168" font-family="Arial" font-size="20" font-weight="bold" fill="white">45.3 kWh</text>
  
  <rect x="410" y="100" width="170" height="100" rx="5" fill="#2ecc71"/>
  <rect x="430" y="120" width="100" height="15" rx="2" fill="#ffffff" fill-opacity="0.2"/>
  <rect x="430" y="145" width="80" height="30" rx="2" fill="#ffffff" fill-opacity="0.1"/>
  <text x="440" y="168" font-family="Arial" font-size="20" font-weight="bold" fill="white">37.8 kWh</text>
  
  <rect x="600" y="100" width="180" height="100" rx="5" fill="#e74c3c"/>
  <rect x="620" y="120" width="100" height="15" rx="2" fill="#ffffff" fill-opacity="0.2"/>
  <rect x="620" y="145" width="80" height="30" rx="2" fill="#ffffff" fill-opacity="0.1"/>
  <text x="630" y="168" font-family="Arial" font-size="20" font-weight="bold" fill="white">86%</text>
  
  <!-- Main chart area -->
  <rect x="220" y="220" width="560" height="260" rx="5" fill="#2c3e50"/>
  <rect x="240" y="240" width="520" height="30" rx="2" fill="#34495e"/>
  
  <!-- Chart grid lines -->
  <line x1="240" y1="300" x2="760" y2="300" stroke="#34495e" stroke-width="1"/>
  <line x1="240" y1="340" x2="760" y2="340" stroke="#34495e" stroke-width="1"/>
  <line x1="240" y1="380" x2="760" y2="380" stroke="#34495e" stroke-width="1"/>
  <line x1="240" y1="420" x2="760" y2="420" stroke="#34495e" stroke-width="1"/>
  
  <!-- Chart data line - Energy consumption -->
  <path d="M240,380 C290,390 320,350 350,340 C380,330 410,350 440,330 C470,310 500,320 530,300 C560,280 590,290 620,270 C650,250 680,260 710,280 C740,300 760,290" stroke="#3498db" stroke-width="3" fill="none"/>
  
  <!-- Chart data line - Energy production -->
  <path d="M240,400 C290,410 320,390 350,380 C380,370 410,390 440,360 C470,330 500,350 530,330 C560,310 590,320 620,300 C650,280 680,290 710,310 C740,330 760,320" stroke="#2ecc71" stroke-width="3" fill="none"/>
  
  <!-- Chart data points - Energy consumption -->
  <circle cx="240" cy="380" r="4" fill="#3498db"/>
  <circle cx="290" cy="390" r="4" fill="#3498db"/>
  <circle cx="350" cy="340" r="4" fill="#3498db"/>
  <circle cx="410" cy="350" r="4" fill="#3498db"/>
  <circle cx="470" cy="310" r="4" fill="#3498db"/>
  <circle cx="530" cy="300" r="4" fill="#3498db"/>
  <circle cx="590" cy="290" r="4" fill="#3498db"/>
  <circle cx="650" cy="250" r="4" fill="#3498db"/>
  <circle cx="710" cy="280" r="4" fill="#3498db"/>
  <circle cx="760" cy="290" r="4" fill="#3498db"/>
  
  <!-- Chart data points - Energy production -->
  <circle cx="240" cy="400" r="4" fill="#2ecc71"/>
  <circle cx="290" cy="410" r="4" fill="#2ecc71"/>
  <circle cx="350" cy="380" r="4" fill="#2ecc71"/>
  <circle cx="410" cy="390" r="4" fill="#2ecc71"/>
  <circle cx="470" cy="330" r="4" fill="#2ecc71"/>
  <circle cx="530" cy="330" r="4" fill="#2ecc71"/>
  <circle cx="590" cy="320" r="4" fill="#2ecc71"/>
  <circle cx="650" cy="280" r="4" fill="#2ecc71"/>
  <circle cx="710" cy="310" r="4" fill="#2ecc71"/>
  <circle cx="760" cy="320" r="4" fill="#2ecc71"/>
</svg>